<svg width="260" height="118" viewBox="0 0 260 118" fill="none" xmlns="http://www.w3.org/2000/svg">
<path fill-rule="evenodd" clip-rule="evenodd" d="M154 20C154 8.95431 145.046 0 134 0H14.5C6.49187 0 0 6.49187 0 14.5V14.5C0 22.5081 6.85653 28.7033 13.9443 32.4308C23.4903 37.4511 30 47.4654 30 59C30 70.5346 23.4903 80.5489 13.9443 85.5692C6.85653 89.2967 0 95.4919 0 103.5V103.5C0 111.508 6.49187 118 14.5 118H134C145.046 118 154 109.046 154 98V20Z" fill="url(#paint0_linear_312_3325)"/>
<path fill-rule="evenodd" clip-rule="evenodd" d="M176 20C176 8.95431 184.954 0 196 0H245.5C253.508 0 260 6.49187 260 14.5V14.5C260 22.5081 253.143 28.7033 246.056 32.4308C236.51 37.4511 230 47.4654 230 59C230 70.5346 236.51 80.5489 246.056 85.5692C253.143 89.2967 260 95.4919 260 103.5V103.5C260 111.508 253.508 118 245.5 118H196C184.954 118 176 109.046 176 98V20Z" fill="url(#paint1_linear_312_3325)"/>
<defs>
<linearGradient id="paint0_linear_312_3325" x1="5.33076" y1="-14.5" x2="185.85" y2="45.8263" gradientUnits="userSpaceOnUse">
<stop offset="0.132214" stop-color="#F55F3E"/>
<stop offset="0.683471" stop-color="#D7135F"/>
</linearGradient>
<linearGradient id="paint1_linear_312_3325" x1="257.092" y1="-14.5" x2="151.151" y2="4.81111" gradientUnits="userSpaceOnUse">
<stop offset="0.132214" stop-color="#F55F3E"/>
<stop offset="0.683471" stop-color="#D7135F"/>
</linearGradient>
</defs>
</svg>
